<mxfile host="app.diagrams.net" agent="Mozilla/5.0 (X11; Ubuntu; Linux x86_64; rv:109.0) Gecko/20100101 Firefox/115.0" version="24.7.12">
  <diagram name="ページ1" id="M-X2D4-Z1n7_Ui4OXt2C">
    <mxGraphModel dx="3141" dy="1180" grid="1" gridSize="10" guides="1" tooltips="1" connect="1" arrows="1" fold="1" page="1" pageScale="1" pageWidth="1169" pageHeight="827" math="0" shadow="0">
      <root>
        <mxCell id="0" />
        <mxCell id="1" parent="0" />
        <mxCell id="p2a49KCnrcdH9dLfTlK8-26" style="edgeStyle=orthogonalEdgeStyle;rounded=0;orthogonalLoop=1;jettySize=auto;html=1;exitX=0.25;exitY=1;exitDx=0;exitDy=0;entryX=0.5;entryY=0;entryDx=0;entryDy=0;" edge="1" parent="1" source="p2a49KCnrcdH9dLfTlK8-1" target="p2a49KCnrcdH9dLfTlK8-2">
          <mxGeometry relative="1" as="geometry" />
        </mxCell>
        <mxCell id="p2a49KCnrcdH9dLfTlK8-27" style="edgeStyle=orthogonalEdgeStyle;rounded=0;orthogonalLoop=1;jettySize=auto;html=1;exitX=0.75;exitY=1;exitDx=0;exitDy=0;entryX=0.5;entryY=0;entryDx=0;entryDy=0;" edge="1" parent="1" source="p2a49KCnrcdH9dLfTlK8-1" target="p2a49KCnrcdH9dLfTlK8-3">
          <mxGeometry relative="1" as="geometry" />
        </mxCell>
        <mxCell id="p2a49KCnrcdH9dLfTlK8-1" value="ライントレースカーの作成" style="rounded=0;whiteSpace=wrap;html=1;" vertex="1" parent="1">
          <mxGeometry x="270" y="100" width="440" height="60" as="geometry" />
        </mxCell>
        <mxCell id="p2a49KCnrcdH9dLfTlK8-28" style="edgeStyle=orthogonalEdgeStyle;rounded=0;orthogonalLoop=1;jettySize=auto;html=1;exitX=0.25;exitY=1;exitDx=0;exitDy=0;" edge="1" parent="1" source="p2a49KCnrcdH9dLfTlK8-2" target="p2a49KCnrcdH9dLfTlK8-4">
          <mxGeometry relative="1" as="geometry" />
        </mxCell>
        <mxCell id="p2a49KCnrcdH9dLfTlK8-29" style="edgeStyle=orthogonalEdgeStyle;rounded=0;orthogonalLoop=1;jettySize=auto;html=1;exitX=0.75;exitY=1;exitDx=0;exitDy=0;entryX=0.5;entryY=0;entryDx=0;entryDy=0;" edge="1" parent="1" source="p2a49KCnrcdH9dLfTlK8-2" target="p2a49KCnrcdH9dLfTlK8-5">
          <mxGeometry relative="1" as="geometry" />
        </mxCell>
        <mxCell id="p2a49KCnrcdH9dLfTlK8-42" style="edgeStyle=orthogonalEdgeStyle;rounded=0;orthogonalLoop=1;jettySize=auto;html=1;exitX=0.5;exitY=1;exitDx=0;exitDy=0;entryX=0.5;entryY=0;entryDx=0;entryDy=0;" edge="1" parent="1" source="p2a49KCnrcdH9dLfTlK8-2" target="p2a49KCnrcdH9dLfTlK8-41">
          <mxGeometry relative="1" as="geometry" />
        </mxCell>
        <mxCell id="p2a49KCnrcdH9dLfTlK8-2" value="ハードウェア" style="rounded=0;whiteSpace=wrap;html=1;" vertex="1" parent="1">
          <mxGeometry x="45" y="250" width="290" height="60" as="geometry" />
        </mxCell>
        <mxCell id="p2a49KCnrcdH9dLfTlK8-47" style="edgeStyle=orthogonalEdgeStyle;rounded=0;orthogonalLoop=1;jettySize=auto;html=1;exitX=0.25;exitY=1;exitDx=0;exitDy=0;entryX=0.5;entryY=0;entryDx=0;entryDy=0;" edge="1" parent="1" source="p2a49KCnrcdH9dLfTlK8-3" target="p2a49KCnrcdH9dLfTlK8-19">
          <mxGeometry relative="1" as="geometry" />
        </mxCell>
        <mxCell id="p2a49KCnrcdH9dLfTlK8-48" style="edgeStyle=orthogonalEdgeStyle;rounded=0;orthogonalLoop=1;jettySize=auto;html=1;exitX=0.25;exitY=1;exitDx=0;exitDy=0;entryX=0.5;entryY=0;entryDx=0;entryDy=0;" edge="1" parent="1" source="p2a49KCnrcdH9dLfTlK8-3" target="p2a49KCnrcdH9dLfTlK8-20">
          <mxGeometry relative="1" as="geometry" />
        </mxCell>
        <mxCell id="p2a49KCnrcdH9dLfTlK8-49" style="edgeStyle=orthogonalEdgeStyle;rounded=0;orthogonalLoop=1;jettySize=auto;html=1;exitX=0.75;exitY=1;exitDx=0;exitDy=0;" edge="1" parent="1" source="p2a49KCnrcdH9dLfTlK8-3" target="p2a49KCnrcdH9dLfTlK8-21">
          <mxGeometry relative="1" as="geometry" />
        </mxCell>
        <mxCell id="p2a49KCnrcdH9dLfTlK8-50" style="edgeStyle=orthogonalEdgeStyle;rounded=0;orthogonalLoop=1;jettySize=auto;html=1;exitX=0.75;exitY=1;exitDx=0;exitDy=0;entryX=0.5;entryY=0;entryDx=0;entryDy=0;" edge="1" parent="1" source="p2a49KCnrcdH9dLfTlK8-3" target="p2a49KCnrcdH9dLfTlK8-22">
          <mxGeometry relative="1" as="geometry" />
        </mxCell>
        <mxCell id="p2a49KCnrcdH9dLfTlK8-3" value="ソフトウェア" style="rounded=0;whiteSpace=wrap;html=1;" vertex="1" parent="1">
          <mxGeometry x="730" y="250" width="290" height="60" as="geometry" />
        </mxCell>
        <mxCell id="p2a49KCnrcdH9dLfTlK8-30" style="edgeStyle=orthogonalEdgeStyle;rounded=0;orthogonalLoop=1;jettySize=auto;html=1;exitX=0.25;exitY=1;exitDx=0;exitDy=0;entryX=0.5;entryY=0;entryDx=0;entryDy=0;" edge="1" parent="1" source="p2a49KCnrcdH9dLfTlK8-4" target="p2a49KCnrcdH9dLfTlK8-8">
          <mxGeometry relative="1" as="geometry" />
        </mxCell>
        <mxCell id="p2a49KCnrcdH9dLfTlK8-31" style="edgeStyle=orthogonalEdgeStyle;rounded=0;orthogonalLoop=1;jettySize=auto;html=1;exitX=0.75;exitY=1;exitDx=0;exitDy=0;entryX=0.5;entryY=0;entryDx=0;entryDy=0;" edge="1" parent="1" source="p2a49KCnrcdH9dLfTlK8-4" target="p2a49KCnrcdH9dLfTlK8-9">
          <mxGeometry relative="1" as="geometry" />
        </mxCell>
        <mxCell id="p2a49KCnrcdH9dLfTlK8-4" value="電子部品" style="rounded=0;whiteSpace=wrap;html=1;" vertex="1" parent="1">
          <mxGeometry x="-120" y="370" width="210" height="60" as="geometry" />
        </mxCell>
        <mxCell id="p2a49KCnrcdH9dLfTlK8-32" style="edgeStyle=orthogonalEdgeStyle;rounded=0;orthogonalLoop=1;jettySize=auto;html=1;exitX=0.25;exitY=1;exitDx=0;exitDy=0;entryX=0.5;entryY=0;entryDx=0;entryDy=0;" edge="1" parent="1" source="p2a49KCnrcdH9dLfTlK8-5" target="p2a49KCnrcdH9dLfTlK8-6">
          <mxGeometry relative="1" as="geometry" />
        </mxCell>
        <mxCell id="p2a49KCnrcdH9dLfTlK8-33" style="edgeStyle=orthogonalEdgeStyle;rounded=0;orthogonalLoop=1;jettySize=auto;html=1;exitX=0.75;exitY=1;exitDx=0;exitDy=0;entryX=0.5;entryY=0;entryDx=0;entryDy=0;" edge="1" parent="1" source="p2a49KCnrcdH9dLfTlK8-5" target="p2a49KCnrcdH9dLfTlK8-7">
          <mxGeometry relative="1" as="geometry" />
        </mxCell>
        <mxCell id="p2a49KCnrcdH9dLfTlK8-5" value="美的部品" style="rounded=0;whiteSpace=wrap;html=1;" vertex="1" parent="1">
          <mxGeometry x="310" y="370" width="210" height="60" as="geometry" />
        </mxCell>
        <mxCell id="p2a49KCnrcdH9dLfTlK8-39" style="edgeStyle=orthogonalEdgeStyle;rounded=0;orthogonalLoop=1;jettySize=auto;html=1;exitX=0.5;exitY=1;exitDx=0;exitDy=0;entryX=0.5;entryY=0;entryDx=0;entryDy=0;" edge="1" parent="1" source="p2a49KCnrcdH9dLfTlK8-6" target="p2a49KCnrcdH9dLfTlK8-13">
          <mxGeometry relative="1" as="geometry" />
        </mxCell>
        <mxCell id="p2a49KCnrcdH9dLfTlK8-40" style="edgeStyle=orthogonalEdgeStyle;rounded=0;orthogonalLoop=1;jettySize=auto;html=1;exitX=0.5;exitY=1;exitDx=0;exitDy=0;entryX=0.5;entryY=0;entryDx=0;entryDy=0;" edge="1" parent="1" source="p2a49KCnrcdH9dLfTlK8-6" target="p2a49KCnrcdH9dLfTlK8-14">
          <mxGeometry relative="1" as="geometry" />
        </mxCell>
        <mxCell id="p2a49KCnrcdH9dLfTlK8-6" value="アクリル" style="rounded=0;whiteSpace=wrap;html=1;" vertex="1" parent="1">
          <mxGeometry x="260" y="490" width="120" height="60" as="geometry" />
        </mxCell>
        <mxCell id="p2a49KCnrcdH9dLfTlK8-43" style="edgeStyle=orthogonalEdgeStyle;rounded=0;orthogonalLoop=1;jettySize=auto;html=1;exitX=0.5;exitY=1;exitDx=0;exitDy=0;" edge="1" parent="1" source="p2a49KCnrcdH9dLfTlK8-7" target="p2a49KCnrcdH9dLfTlK8-15">
          <mxGeometry relative="1" as="geometry" />
        </mxCell>
        <mxCell id="p2a49KCnrcdH9dLfTlK8-44" style="edgeStyle=orthogonalEdgeStyle;rounded=0;orthogonalLoop=1;jettySize=auto;html=1;exitX=0.5;exitY=1;exitDx=0;exitDy=0;entryX=0.5;entryY=0;entryDx=0;entryDy=0;" edge="1" parent="1" source="p2a49KCnrcdH9dLfTlK8-7" target="p2a49KCnrcdH9dLfTlK8-16">
          <mxGeometry relative="1" as="geometry" />
        </mxCell>
        <mxCell id="p2a49KCnrcdH9dLfTlK8-45" style="edgeStyle=orthogonalEdgeStyle;rounded=0;orthogonalLoop=1;jettySize=auto;html=1;exitX=0.5;exitY=1;exitDx=0;exitDy=0;" edge="1" parent="1" source="p2a49KCnrcdH9dLfTlK8-7" target="p2a49KCnrcdH9dLfTlK8-17">
          <mxGeometry relative="1" as="geometry" />
        </mxCell>
        <mxCell id="p2a49KCnrcdH9dLfTlK8-7" value="マスコット" style="rounded=0;whiteSpace=wrap;html=1;" vertex="1" parent="1">
          <mxGeometry x="440" y="490" width="120" height="60" as="geometry" />
        </mxCell>
        <mxCell id="p2a49KCnrcdH9dLfTlK8-34" style="edgeStyle=orthogonalEdgeStyle;rounded=0;orthogonalLoop=1;jettySize=auto;html=1;exitX=0.5;exitY=1;exitDx=0;exitDy=0;entryX=0.5;entryY=0;entryDx=0;entryDy=0;" edge="1" parent="1" source="p2a49KCnrcdH9dLfTlK8-8" target="p2a49KCnrcdH9dLfTlK8-10">
          <mxGeometry relative="1" as="geometry" />
        </mxCell>
        <mxCell id="p2a49KCnrcdH9dLfTlK8-35" style="edgeStyle=orthogonalEdgeStyle;rounded=0;orthogonalLoop=1;jettySize=auto;html=1;exitX=0.5;exitY=1;exitDx=0;exitDy=0;" edge="1" parent="1" source="p2a49KCnrcdH9dLfTlK8-8" target="p2a49KCnrcdH9dLfTlK8-11">
          <mxGeometry relative="1" as="geometry" />
        </mxCell>
        <mxCell id="p2a49KCnrcdH9dLfTlK8-8" value="回路" style="rounded=0;whiteSpace=wrap;html=1;" vertex="1" parent="1">
          <mxGeometry x="-170" y="490" width="120" height="60" as="geometry" />
        </mxCell>
        <mxCell id="p2a49KCnrcdH9dLfTlK8-36" style="edgeStyle=orthogonalEdgeStyle;rounded=0;orthogonalLoop=1;jettySize=auto;html=1;exitX=0.5;exitY=1;exitDx=0;exitDy=0;entryX=0.5;entryY=0;entryDx=0;entryDy=0;" edge="1" parent="1" source="p2a49KCnrcdH9dLfTlK8-9" target="p2a49KCnrcdH9dLfTlK8-12">
          <mxGeometry relative="1" as="geometry" />
        </mxCell>
        <mxCell id="p2a49KCnrcdH9dLfTlK8-9" value="モーター" style="rounded=0;whiteSpace=wrap;html=1;" vertex="1" parent="1">
          <mxGeometry y="490" width="120" height="60" as="geometry" />
        </mxCell>
        <mxCell id="p2a49KCnrcdH9dLfTlK8-10" value="半田付け" style="rounded=1;whiteSpace=wrap;html=1;" vertex="1" parent="1">
          <mxGeometry x="-300" y="610" width="120" height="60" as="geometry" />
        </mxCell>
        <mxCell id="p2a49KCnrcdH9dLfTlK8-11" value="センサー組み立て" style="rounded=1;whiteSpace=wrap;html=1;" vertex="1" parent="1">
          <mxGeometry x="-170" y="610" width="120" height="60" as="geometry" />
        </mxCell>
        <mxCell id="p2a49KCnrcdH9dLfTlK8-12" value="ギアボックス" style="rounded=1;whiteSpace=wrap;html=1;" vertex="1" parent="1">
          <mxGeometry y="610" width="120" height="60" as="geometry" />
        </mxCell>
        <mxCell id="p2a49KCnrcdH9dLfTlK8-13" value="アクリデザイン" style="rounded=1;whiteSpace=wrap;html=1;" vertex="1" parent="1">
          <mxGeometry x="130" y="610" width="120" height="60" as="geometry" />
        </mxCell>
        <mxCell id="p2a49KCnrcdH9dLfTlK8-14" value="レーザーカッター" style="rounded=1;whiteSpace=wrap;html=1;" vertex="1" parent="1">
          <mxGeometry x="260" y="610" width="120" height="60" as="geometry" />
        </mxCell>
        <mxCell id="p2a49KCnrcdH9dLfTlK8-15" value="コンセプト決定" style="rounded=1;whiteSpace=wrap;html=1;" vertex="1" parent="1">
          <mxGeometry x="440" y="610" width="120" height="60" as="geometry" />
        </mxCell>
        <mxCell id="p2a49KCnrcdH9dLfTlK8-16" value="３Dデザイン" style="rounded=1;whiteSpace=wrap;html=1;" vertex="1" parent="1">
          <mxGeometry x="570" y="610" width="120" height="60" as="geometry" />
        </mxCell>
        <mxCell id="p2a49KCnrcdH9dLfTlK8-17" value="３Dプリント" style="rounded=1;whiteSpace=wrap;html=1;" vertex="1" parent="1">
          <mxGeometry x="700" y="610" width="120" height="60" as="geometry" />
        </mxCell>
        <mxCell id="p2a49KCnrcdH9dLfTlK8-18" value="色染める" style="rounded=1;whiteSpace=wrap;html=1;" vertex="1" parent="1">
          <mxGeometry x="830" y="610" width="120" height="60" as="geometry" />
        </mxCell>
        <mxCell id="p2a49KCnrcdH9dLfTlK8-19" value="テストプログラム作成" style="rounded=1;whiteSpace=wrap;html=1;" vertex="1" parent="1">
          <mxGeometry x="620" y="370" width="120" height="60" as="geometry" />
        </mxCell>
        <mxCell id="p2a49KCnrcdH9dLfTlK8-20" value="プログラムデザイン" style="rounded=1;whiteSpace=wrap;html=1;" vertex="1" parent="1">
          <mxGeometry x="750" y="370" width="120" height="60" as="geometry" />
        </mxCell>
        <mxCell id="p2a49KCnrcdH9dLfTlK8-21" value="プログラム作成" style="rounded=1;whiteSpace=wrap;html=1;" vertex="1" parent="1">
          <mxGeometry x="880" y="370" width="120" height="60" as="geometry" />
        </mxCell>
        <mxCell id="p2a49KCnrcdH9dLfTlK8-22" value="プログラム調査" style="rounded=1;whiteSpace=wrap;html=1;" vertex="1" parent="1">
          <mxGeometry x="1010" y="370" width="120" height="60" as="geometry" />
        </mxCell>
        <mxCell id="p2a49KCnrcdH9dLfTlK8-41" value="本体組み立て" style="rounded=1;whiteSpace=wrap;html=1;" vertex="1" parent="1">
          <mxGeometry x="130" y="370" width="120" height="60" as="geometry" />
        </mxCell>
        <mxCell id="p2a49KCnrcdH9dLfTlK8-46" style="edgeStyle=orthogonalEdgeStyle;rounded=0;orthogonalLoop=1;jettySize=auto;html=1;exitX=0.5;exitY=1;exitDx=0;exitDy=0;entryX=0.616;entryY=0.071;entryDx=0;entryDy=0;entryPerimeter=0;" edge="1" parent="1" source="p2a49KCnrcdH9dLfTlK8-7" target="p2a49KCnrcdH9dLfTlK8-18">
          <mxGeometry relative="1" as="geometry" />
        </mxCell>
      </root>
    </mxGraphModel>
  </diagram>
</mxfile>
